# xmcd CD database file
#
# Track frame offsets:
#	225
#	23808
#	38746
#	62005
#	85007
#	100738
#	125302
#	142309
#	167166
#	184101
#	202203
#	215715
#	232053
#
# Disc length: 3400 seconds
#
# Revision: 0
# Processed by: cddbd v1.5.2PL0 Copyright (c) Steve Scherf et al.
# Submitted via: CDex 1.70beta2
#
DISCID=bf0d450d
DTITLE=Ulla Oster and Wollie Kaiser - We Can Do It On Stage Any Time!
DYEAR=1997
DGENRE=Jazz
TTITLE0=I Wanna Have Fun
TTITLE1=X-Dream
TTITLE2=Manic Musical Depression
TTITLE3=Tapetenwechsel
TTITLE4=Never Will I Marry
TTITLE5=Super Sex
TTITLE6=Isn't It Romantic
TTITLE7=Mr. Unison
TTITLE8=Sosolo
TTITLE9=To Live and Let Die
TTITLE10=Tex Mex Teevee
TTITLE11=UB 40
TTITLE12=Südsee
EXTD=YEAR: 1997
EXTT0=
EXTT1=
EXTT2=
EXTT3=
EXTT4=
EXTT5=
EXTT6=
EXTT7=
EXTT8=
EXTT9=
EXTT10=
EXTT11=
EXTT12=
PLAYORDER=
